<svg xmlns="http://www.w3.org/2000/svg" width="79.684" height="79.684" viewBox="0 0 79.684 79.684">
  <g id="Group_43" data-name="Group 43" transform="translate(-2130 -2500)">
    <g id="parking-area" transform="translate(2130 2500)">
      <g id="Group_9" data-name="Group 9">
        <path id="Path_8" data-name="Path 8" d="M20.309,31.275H44.816A2.18,2.18,0,0,0,46.994,29.1V4.591a2.18,2.18,0,0,0-2.177-2.178H20.309a2.18,2.18,0,0,0-2.177,2.178V5.1H13.95v-.95a4.149,4.149,0,0,0-8.3,0v42.9a1.167,1.167,0,1,0,2.334,0V4.149a1.815,1.815,0,1,1,3.63,0V70.723H7.986V52.378a1.167,1.167,0,1,0-2.334,0V70.723H4.476A4.479,4.479,0,0,0,0,75.195v2.634a1.844,1.844,0,0,0,1.842,1.842H17.759a1.847,1.847,0,0,0,1.847-1.842V75.195a4.479,4.479,0,0,0-4.476-4.472H13.95V28.588h4.182V29.1a2.18,2.18,0,0,0,2.178,2.178Zm-3.038,43.92v2.142H2.334V75.195a2.142,2.142,0,0,1,2.142-2.137H15.13A2.142,2.142,0,0,1,17.272,75.195ZM13.95,13.059h4.182v7.57H13.95Zm6.516-8.312H44.659V28.94H20.466V4.748ZM18.132,7.434v3.29H13.95V7.434ZM13.95,26.254v-3.29h4.182v3.29Z" transform="translate(0 0)" fill="#00adee"/>
        <path id="Path_9" data-name="Path 9" d="M205.055,247.665a4.768,4.768,0,0,0-4.75-4.776h-4.462l-1.528-3.224c-.923-1.946-1.62-3.274-2.859-3.968-1.144-.641-2.449-.637-4.824-.63H166.9c-2.371-.008-3.677-.011-4.82.63-1.238.695-1.935,2.022-2.858,3.968l-1.528,3.224h-4.462a4.776,4.776,0,0,0-.065,9.55l-1.351,2.851a5.525,5.525,0,0,0-.8,3.343c0,.135,0,10.618,0,10.618,0,.882,0,2.24,1.257,2.741v3.254a2.922,2.922,0,0,0,2.919,2.919H160.6a2.92,2.92,0,0,0,2.914-2.919v-3.059h10.625a1.167,1.167,0,1,0,0-2.334H153.362c-.012-.2-.012-11.091-.013-11.229a3.626,3.626,0,0,1,.573-2.332l1.825-3.85h42.04l1.826,3.851a3.587,3.587,0,0,1,.568,2.31c0,.144,0,11.054-.013,11.25H179.456a1.167,1.167,0,1,0,0,2.334H190.01v3.059a2.922,2.922,0,0,0,2.919,2.919h5.413a2.922,2.922,0,0,0,2.919-2.919v-3.255c1.252-.5,1.253-1.859,1.253-2.741,0,0,0-10.5,0-10.637a5.538,5.538,0,0,0-.794-3.323l-1.352-2.852a4.768,4.768,0,0,0,4.685-4.775Zm-54.241,0a2.431,2.431,0,0,1,2.415-2.442h3.356l-2.315,4.883h-1.041a2.431,2.431,0,0,1-2.415-2.441Zm10.371,24.522v3.059a.59.59,0,0,1-.58.584h-5.413a.592.592,0,0,1-.584-.584v-3.059Zm.144-31.522c.819-1.728,1.311-2.607,1.891-2.932.608-.341,1.759-.338,3.671-.332h19.75c1.913-.006,3.066-.009,3.674.332.58.325,1.072,1.2,1.891,2.932l4.476,9.441H156.853Zm37.6,34.582a.592.592,0,0,1-.584.584h-5.413a.592.592,0,0,1-.584-.584v-3.059h6.581Zm1.379-25.14h-1.041l-2.315-4.883h3.356a2.442,2.442,0,0,1,0,4.883Z" transform="translate(-125.371 -198.481)" fill="#00adee"/>
        <path id="Path_10" data-name="Path 10" d="M285.88,386.77h11.836a1.167,1.167,0,0,0,0-2.334H285.88a1.167,1.167,0,0,0,0,2.334Z" transform="translate(-240.402 -324.605)" fill="#00adee"/>
        <path id="Path_11" data-name="Path 11" d="M285.88,420.673h11.836a1.167,1.167,0,0,0,0-2.335H285.88a1.167,1.167,0,0,0,0,2.335Z" transform="translate(-240.402 -353.231)" fill="#00adee"/>
        <path id="Path_12" data-name="Path 12" d="M402.942,375.224a4.9,4.9,0,1,0-4.9,4.9A4.907,4.907,0,0,0,402.942,375.224Zm-7.469,0a2.567,2.567,0,1,1,2.569,2.569A2.572,2.572,0,0,1,395.474,375.224Z" transform="translate(-331.954 -312.686)" fill="#00adee"/>
        <path id="Path_13" data-name="Path 13" d="M204.35,375.224a4.9,4.9,0,1,0,4.9-4.9A4.907,4.907,0,0,0,204.35,375.224Zm7.469,0a2.567,2.567,0,1,1-2.569-2.569A2.572,2.572,0,0,1,211.819,375.224Z" transform="translate(-172.546 -312.686)" fill="#00adee"/>
      </g>
      <path id="Path_14" data-name="Path 14" d="M178.987,45.459H174.2a1.18,1.18,0,0,0-1.167,1.167v17.2a1.167,1.167,0,1,0,2.334,0V57.518c1.122-.006,2.792-.015,3.623-.015a6.023,6.023,0,1,0,0-12.044Zm0,9.71c-.826,0-2.472.008-3.6.015-.006-1.152-.015-2.86-.015-3.7,0-.709,0-2.49-.008-3.688h3.619a3.689,3.689,0,1,1,0,7.375Z" transform="translate(-146.101 -38.384)" fill="#00adee"/>
    </g>
  </g>
</svg>
